<?xml version="1.0" standalone="no"?>
<!DOCTYPE svg PUBLIC "-//W3C//DTD SVG 20010904//EN"
 "http://www.w3.org/TR/2001/REC-SVG-20010904/DTD/svg10.dtd">
<svg version="1.0" xmlns="http://www.w3.org/2000/svg"
 width="512.000000pt" height="512.000000pt" viewBox="0 0 512.000000 512.000000"
 preserveAspectRatio="xMidYMid meet">

<g transform="translate(0.000000,512.000000) scale(0.100000,-0.100000)"
fill="#000000" stroke="none">
<path d="M4191 4940 c-91 -24 -162 -56 -238 -108 -62 -42 -169 -150 -199 -201
-10 -17 -24 -31 -32 -31 -12 0 -80 15 -492 105 -177 39 -239 41 -301 10 -44
-22 -2882 -2859 -2904 -2903 -24 -48 -30 -124 -15 -179 11 -40 31 -66 114
-151 108 -109 125 -117 170 -81 19 15 26 30 26 56 0 30 -11 46 -85 123 -72 75
-85 93 -85 122 0 30 103 136 1423 1456 788 788 1432 1425 1445 1429 26 6 1077
-219 1130 -242 18 -8 37 -25 42 -37 8 -19 150 -658 150 -675 0 -3 -25 -3 -56
1 -63 7 -170 47 -225 83 l-36 23 29 57 c34 67 38 160 11 239 -25 73 -104 148
-178 170 -146 42 -300 -28 -363 -165 -21 -46 -24 -64 -20 -130 5 -88 27 -138
85 -192 72 -69 166 -99 254 -80 49 11 51 10 107 -28 113 -76 228 -118 355
-130 l72 -6 27 -115 c14 -63 27 -135 27 -160 l1 -44 -175 -176 c-162 -163
-175 -179 -175 -212 0 -40 36 -78 73 -78 29 0 383 352 408 405 26 55 24 131
-6 263 -14 61 -25 115 -25 121 0 5 30 19 68 31 109 35 198 88 283 167 111 105
184 229 220 373 18 71 18 269 0 339 -69 273 -278 484 -545 551 -105 27 -263
26 -365 0z m333 -146 c212 -55 386 -236 431 -449 62 -294 -104 -590 -385 -686
-38 -13 -71 -21 -73 -19 -3 3 -39 162 -81 355 -49 221 -85 364 -99 389 -39 70
-92 101 -224 131 -65 15 -138 32 -163 39 l-45 12 70 70 c76 75 163 127 260
155 78 23 227 24 309 3z m-657 -745 c18 -11 41 -35 50 -52 18 -35 20 -105 5
-133 -8 -15 -14 -11 -40 27 -49 70 -59 79 -96 79 -25 0 -40 -7 -55 -26 -27
-34 -26 -49 4 -103 29 -50 25 -62 -13 -40 -68 38 -93 137 -52 204 39 63 132
84 197 44z"/>
<path d="M3063 3705 c-71 -22 -124 -59 -210 -148 -109 -111 -109 -119 -10
-223 158 -167 436 -424 458 -424 30 0 198 167 235 233 26 47 29 62 29 142 0
83 -3 96 -34 160 -39 78 -128 175 -201 218 -50 29 -148 57 -195 56 -16 0 -49
-6 -72 -14z m178 -166 c56 -28 136 -109 159 -162 24 -51 25 -118 5 -161 -9
-18 -36 -52 -60 -76 l-45 -44 -176 174 -175 175 53 49 c29 27 66 55 83 63 38
17 102 10 156 -18z"/>
<path d="M2572 3297 c-47 -50 -37 -68 139 -239 89 -87 156 -158 148 -158 -8 0
-139 23 -293 51 l-279 51 -26 -19 c-18 -14 -27 -31 -29 -58 -3 -38 0 -41 250
-292 272 -272 277 -275 332 -232 19 15 26 30 26 56 0 32 -14 49 -152 189 -83
85 -146 154 -140 154 7 0 121 -20 255 -45 134 -25 259 -45 279 -45 45 0 78 34
78 81 1 31 -18 52 -251 282 -223 220 -254 247 -283 247 -21 0 -40 -8 -54 -23z"/>
<path d="M1866 2589 c-14 -17 -26 -39 -26 -50 0 -28 298 -692 318 -706 26 -21
71 -15 97 12 32 31 31 45 -5 125 l-29 65 104 104 103 104 62 -26 c79 -35 112
-35 139 -1 24 31 26 43 10 78 -9 19 -45 40 -148 87 -595 270 -578 264 -625
208z m328 -238 l90 -42 -64 -64 -63 -64 -49 106 c-26 58 -48 109 -48 114 0 10
18 4 134 -50z"/>
<path d="M2726 1451 c-1130 -1130 -1142 -1141 -1181 -1141 -39 0 -48 9 -530
490 -531 531 -517 519 -570 465 -54 -54 -67 -38 472 -577 344 -343 510 -502
535 -513 51 -21 144 -19 193 4 48 22 2314 2285 2329 2326 15 38 -19 79 -69 83
l-38 3 -1141 -1140z"/>
<path d="M1445 2151 c-51 -23 -198 -161 -215 -201 -10 -23 -10 -36 -1 -59 7
-15 121 -137 255 -270 227 -225 245 -241 279 -241 27 0 41 7 56 26 37 47 28
69 -61 161 l-83 85 93 -6 c50 -3 131 -9 180 -12 80 -6 89 -4 115 16 23 18 28
29 25 58 -5 57 -33 70 -168 77 -168 9 -162 7 -145 56 21 57 19 145 -4 194 -23
49 -74 99 -123 119 -51 22 -153 20 -203 -3z m170 -156 c19 -18 25 -35 25 -65
0 -36 -7 -48 -50 -93 l-49 -52 -68 68 -68 68 52 49 c45 43 57 50 93 50 30 0
47 -6 65 -25z"/>
<path d="M971 1680 c-26 -12 -81 -58 -133 -109 -131 -131 -142 -102 166 -410
225 -224 258 -254 286 -254 26 0 48 16 137 104 142 141 172 209 138 324 -29
103 -139 185 -246 185 -18 0 -30 6 -33 18 -4 10 -20 40 -36 66 -55 87 -180
121 -279 76z m146 -152 c39 -36 31 -78 -26 -140 l-50 -53 -55 55 -56 54 52 53
c59 60 95 68 135 31z m259 -177 c37 -22 59 -70 50 -108 -4 -14 -36 -56 -71
-92 l-64 -66 -73 72 -73 73 60 61 c83 84 114 95 171 60z"/>
</g>
</svg>
